<svg version="1.1" id="Layer_1" xmlns="http://www.w3.org/2000/svg" x="0" y="0" viewBox="0 0 1645.9 512.1" xml:space="preserve">
  <style>
    .st0{fill:#fc0}
  </style>
  <path class="st0" d="M238.8 17.8l-65.3 132.4-146.1 21.3c-26.2 3.8-36.7 36.1-17.7 54.6l105.7 103-25 145.5c-4.5 26.3 23.2 46 46.4 33.7l130.7-68.7 130.7 68.7c23.2 12.2 50.9-7.4 46.4-33.7l-25-145.5 105.7-103c19-18.5 8.5-50.8-17.7-54.6l-146.1-21.3-65.3-132.4c-11.7-23.6-45.6-23.9-57.4 0zM794.2 17.8l-65.3 132.4-146.1 21.3c-26.2 3.8-36.7 36.1-17.7 54.6l105.7 103-25 145.5c-4.5 26.3 23.2 46 46.4 33.7l130.7-68.7 130.7 68.7c23.2 12.2 50.9-7.4 46.4-33.7l-25-145.5 105.7-103c19-18.5 8.5-50.8-17.7-54.6l-146.1-21.3-65.3-132.4c-11.7-23.6-45.6-23.9-57.4 0zM1349.7 17.8l-65.3 132.4-146.1 21.3c-26.2 3.8-36.7 36.1-17.7 54.6l105.7 103-25 145.5c-4.5 26.3 23.2 46 46.4 33.7l130.7-68.7 130.7 68.7c23.2 12.2 50.9-7.4 46.4-33.7l-25-145.5 105.7-103c19-18.5 8.5-50.8-17.7-54.6l-146.1-21.3-65.3-132.4c-11.7-23.6-45.6-23.9-57.4 0z"/>
</svg>
